<svg xmlns="http://www.w3.org/2000/svg" viewBox="0 0 200 200"><defs><style>.cls-1{fill:#ec666b;}.cls-2{fill:#fff;}</style></defs><title>73123_interactiveGraphics</title><g id="Layer_6" data-name="Layer 6"><circle class="cls-1" cx="100" cy="100" r="100"/><path class="cls-2" d="M146.08,82.22h-5.8v-17a39.8,39.8,0,1,0-79.6,0v17h-5.8a4.6,4.6,0,0,0-4.6,4.6v65.33a4.6,4.6,0,0,0,4.6,4.6h91.19a4.6,4.6,0,0,0,4.6-4.6V86.82A4.6,4.6,0,0,0,146.08,82.22Zm-38,56.72H92.87l2.34-22.3a10.83,10.83,0,1,1,10.54,0Zm17.46-56.72H75.41v-17a25.08,25.08,0,1,1,50.16,0Z"/></g></svg>