<svg id="Layer_1" data-name="Layer 1" xmlns="http://www.w3.org/2000/svg" viewBox="0 0 200 200"><defs><style>.cls-1{fill:#44b7a6;}.cls-2{fill:none;}.cls-3{fill:#fff;}</style></defs><title>73123_interactiveGraphics</title><circle class="cls-1" cx="100" cy="100" r="100"/><path class="cls-2" d="M111.32,107.19a10.83,10.83,0,1,0-16.1,9.46l-2.34,22.3H108.1l-2.34-22.3A10.83,10.83,0,0,0,111.32,107.19Z"/><path class="cls-2" d="M100.49,40.15A25.11,25.11,0,0,0,75.41,65.23v17h50.16v-17A25.11,25.11,0,0,0,100.49,40.15Z"/><path class="cls-3" d="M85.35,49.08a25.08,25.08,0,1,1,47,17.43l-5.91,15.94,13.8,5.11,5.91-15.94A39.8,39.8,0,1,0,71.55,44L65.65,59.9,79.45,65Z"/><path class="cls-3" d="M146.08,82.22H54.89a4.6,4.6,0,0,0-4.6,4.6v65.33a4.6,4.6,0,0,0,4.6,4.6h91.19a4.6,4.6,0,0,0,4.6-4.6V86.82A4.6,4.6,0,0,0,146.08,82.22Zm-38,56.72H92.87l2.34-22.3a10.83,10.83,0,1,1,10.54,0Z"/></svg>